<svg width="117" height="49" viewBox="0 0 117 49" fill="none" xmlns="http://www.w3.org/2000/svg">
<path d="M60.4049 22.7602L65.9712 22.4369C66.0982 23.2547 66.3311 23.8633 66.712 24.3008C67.3258 24.9855 68.1724 25.3278 69.2941 25.3278C70.1196 25.3278 70.7757 25.1567 71.2202 24.7953C71.6435 24.51 71.8974 24.0535 71.8974 23.578C71.8974 23.1216 71.6646 22.6841 71.2625 22.3988C70.8392 22.0565 69.8444 21.7141 68.2782 21.4098C65.7173 20.8963 63.8759 20.2116 62.7965 19.3367C61.7171 18.5189 61.1033 17.3206 61.1456 16.0463C61.1456 15.1715 61.4419 14.2966 61.9922 13.5738C62.6272 12.756 63.4949 12.1093 64.532 11.748C65.6538 11.3105 67.22 11.0823 69.1883 11.0823C71.6011 11.0823 73.4425 11.4817 74.7124 12.2995C75.9823 13.0983 76.7442 14.3917 76.977 16.1605L71.4741 16.4458C71.326 15.685 71.0297 15.1334 70.5429 14.772C70.0561 14.4107 69.4211 14.2395 68.5957 14.2395C67.9184 14.2395 67.4105 14.3726 67.0718 14.6199C66.7543 14.8481 66.5427 15.1905 66.5639 15.5709C66.5639 15.8562 66.7332 16.1224 66.9872 16.2936C67.2623 16.5218 67.9184 16.731 68.9555 16.9212C71.5165 17.4157 73.3367 17.9103 74.4584 18.4238C75.5801 18.9373 76.3844 19.5649 76.8712 20.3067C77.3792 21.0675 77.6331 21.9424 77.612 22.8363C77.612 23.9014 77.2733 24.9665 76.5961 25.8604C75.8976 26.7923 74.924 27.5151 73.7811 27.9525C72.5747 28.428 71.0508 28.6752 69.2307 28.6752C66.0136 28.6752 63.7913 28.1237 62.5425 27.0015C61.2938 25.8794 60.553 24.472 60.4049 22.7602ZM1.33339 28.39V11.3866H11.0905C12.8895 11.3866 14.2864 11.5197 15.2388 11.805C16.17 12.0713 16.9955 12.6228 17.5458 13.3646C18.1596 14.1824 18.4559 15.1334 18.4347 16.1224C18.4982 17.7961 17.5458 19.3938 15.9161 20.2306C15.2811 20.554 14.5827 20.7822 13.8631 20.8963C14.3922 21.0294 14.9213 21.2577 15.3869 21.5239C15.7467 21.7902 16.0431 22.0945 16.3182 22.4179C16.6357 22.7412 16.9108 23.1026 17.1436 23.4829L19.9797 28.409H13.3339L10.2015 23.1786C9.79939 22.513 9.46075 22.0755 9.14327 21.8663C8.71997 21.6 8.21201 21.4669 7.70405 21.4669H7.19609V28.3709H1.33339V28.39ZM7.19609 18.2716H9.6724C10.2015 18.2336 10.7095 18.1575 11.2174 18.0434C11.5984 17.9863 11.937 17.7961 12.1699 17.5108C12.7413 16.8261 12.6567 15.8562 11.9582 15.2665C11.5772 14.9813 10.8365 14.8291 9.77822 14.8291H7.19609V18.2716ZM0 42.9588L5.56639 42.6355C5.69338 43.4533 5.92619 44.062 6.30716 44.4994C6.89978 45.1841 7.76755 45.5455 8.88929 45.5455C9.71473 45.5455 10.3708 45.3743 10.8153 45.0129C11.2386 44.7086 11.4926 44.2712 11.4926 43.7957C11.4926 43.3392 11.2598 42.9018 10.8576 42.6165C10.4343 42.2741 9.43958 41.9318 7.85221 41.6275C5.29124 41.114 3.44989 40.4293 2.37048 39.5544C1.29106 38.7365 0.677279 37.5383 0.719609 36.264C0.719609 35.3891 1.01592 34.5142 1.56621 33.7915C2.20116 32.9736 3.06892 32.327 4.10601 31.9656C5.22775 31.5282 6.79396 31.2999 8.7623 31.2999C11.1751 31.2999 13.0165 31.6993 14.2864 32.5172C15.5563 33.335 16.297 34.6093 16.5299 36.3781L11.027 36.6634C10.8788 35.9026 10.5825 35.3511 10.0957 34.9897C9.63007 34.6283 8.97395 34.4572 8.14852 34.4762C7.47124 34.4762 6.96328 34.6093 6.62464 34.8756C6.286 35.1038 6.09551 35.4462 6.11668 35.8265C6.11668 36.1118 6.286 36.3781 6.53998 36.5493C6.81512 36.7775 7.47124 36.9867 8.50832 37.1769C11.0693 37.6714 12.8895 38.1659 14.0112 38.6795C15.133 39.193 15.9372 39.8206 16.424 40.5624C16.932 41.3232 17.186 42.1981 17.186 43.073C17.186 44.138 16.8262 45.1841 16.17 46.078C15.4716 47.01 14.498 47.7327 13.3551 48.1702C12.1487 48.6456 10.6248 48.8929 8.80463 48.8929C5.58755 48.8929 3.36523 48.3413 2.1165 47.2192C0.867764 46.078 0.16932 44.6706 0 42.9588H0Z" fill="#000000"/>
<path d="M28.1495 41.6273L33.2714 43.0158C32.9963 44.1759 32.4248 45.2791 31.6417 46.2491C30.9221 47.1049 29.9697 47.7706 28.8903 48.2081C27.7897 48.6455 26.3928 48.8737 24.6996 48.8737C22.6466 48.8737 20.9534 48.6075 19.6624 48.0749C18.3501 47.5424 17.2284 46.5914 16.276 45.241C15.3235 43.8907 14.8579 42.1599 14.8579 40.0487C14.8579 37.2339 15.6833 35.0656 17.3554 33.5631C19.0274 32.0606 21.3767 31.2998 24.4245 31.2998C26.8161 31.2998 28.6786 31.7373 30.0544 32.5931C31.4089 33.468 32.4248 34.7994 33.1021 36.5872L27.9379 37.6143C27.8109 37.2148 27.6204 36.8154 27.3664 36.4731C27.0489 36.0737 26.6468 35.7694 26.16 35.5411C25.6732 35.3129 25.1229 35.2178 24.5726 35.2178C23.2392 35.2178 22.2233 35.6933 21.5249 36.6633C20.9958 37.367 20.7206 38.4891 20.7206 40.0107C20.7206 41.8936 21.0381 43.1869 21.673 43.8907C22.308 44.5944 23.1969 44.9367 24.361 44.9367C25.4827 44.9367 26.3293 44.6514 26.9008 44.0999C27.4722 43.5103 27.8955 42.6924 28.1495 41.6273ZM40.1077 31.5851H45.9493V37.5382H52.3411V31.5851H58.225V48.5885H52.3411V41.7034H45.9493V48.5885H40.1077V31.5851Z" fill="#000000"/>
<path d="M57.4207 40.087C57.4207 37.3102 58.2884 35.1419 60.0028 33.6014C61.7171 32.0608 64.13 31.281 67.1989 31.281C70.3525 31.281 72.7653 32.0418 74.4796 33.5633C76.194 35.0849 77.0406 37.2151 77.0406 39.9539C77.0406 41.9509 76.6596 43.5676 75.9189 44.8419C75.1992 46.0971 74.0775 47.1242 72.7018 47.8089C71.2837 48.5126 69.527 48.874 67.4317 48.874C65.294 48.874 63.5373 48.5697 62.1404 47.961C60.7012 47.3144 59.516 46.3064 58.7329 45.0701C57.8651 43.7387 57.4207 42.084 57.4207 40.087ZM63.2622 40.106C63.2622 41.8178 63.622 43.054 64.3204 43.8148C65.0189 44.5566 65.9925 44.937 67.22 44.937C68.4688 44.937 69.4424 44.5756 70.1408 43.8338C70.8393 43.0921 71.1779 41.7797 71.1779 39.8778C71.1779 38.2802 70.8181 37.101 70.0985 36.3782C69.3789 35.6365 68.4053 35.2751 67.1777 35.2751C66.0983 35.237 65.0612 35.6555 64.3416 36.3972C63.622 37.139 63.2622 38.3753 63.2622 40.106ZM83.0303 40.087C83.0303 37.3102 83.898 35.1419 85.6124 33.6014C87.3268 32.0608 89.7396 31.281 92.8085 31.281C95.9621 31.281 98.3961 32.0418 100.089 33.5633C101.782 35.0849 102.65 37.2151 102.65 39.9539C102.65 41.9509 102.269 43.5676 101.528 44.8419C100.809 46.0971 99.6871 47.1242 98.3114 47.8089C96.8933 48.5126 95.1367 48.874 93.0413 48.874C90.9037 48.874 89.147 48.5697 87.7501 47.961C86.3109 47.3144 85.1256 46.3064 84.3425 45.0701C83.4748 43.7387 83.0303 42.084 83.0303 40.087ZM88.8718 40.106C88.8718 41.8178 89.2316 43.054 89.9301 43.8148C90.6285 44.5566 91.6021 44.937 92.8297 44.937C94.0784 44.937 95.052 44.5756 95.7504 43.8338C96.4489 43.0921 96.7875 41.7797 96.7875 39.8778C96.7875 38.2802 96.4277 37.101 95.7081 36.3782C94.9885 35.6365 94.0149 35.2751 92.7873 35.2751C91.7079 35.237 90.6497 35.6555 89.9512 36.3972C89.2316 37.139 88.8718 38.3753 88.8718 40.106Z" fill="#000000"/>
<path d="M102.036 31.5852H107.878V44.4043H117V48.5886H102.015V31.5852H102.036Z" fill="#000000"/>
<path d="M95.5978 30.6038C101.479 26.6211 103.292 19.8699 99.6485 15.5244C96.0044 11.179 88.2827 10.8849 82.4015 14.8676C76.5203 18.8503 74.7068 25.6015 78.3508 29.947C81.9949 34.2924 89.7166 34.5865 95.5978 30.6038Z" fill="#000000"/>
<path d="M95.5978 30.604C101.479 26.6214 103.292 19.8701 99.6484 15.5247C96.0044 11.1793 88.2827 10.8852 82.4015 14.8678C76.5203 18.8505 74.7068 25.6018 78.3508 29.9472C81.9949 34.2926 89.7166 34.5867 95.5978 30.604Z" fill="black"/>
<path d="M95.5978 30.604C101.479 26.6214 103.292 19.8701 99.6484 15.5247C96.0044 11.1793 88.2827 10.8852 82.4015 14.8678C76.5203 18.8505 74.7068 25.6018 78.3508 29.9472C81.9949 34.2926 89.7166 34.5867 95.5978 30.604Z" fill="white"/>
<path d="M95.5978 30.604C101.479 26.6214 103.292 19.8701 99.6484 15.5247C96.0044 11.1793 88.2827 10.8852 82.4015 14.8678C76.5203 18.8505 74.7068 25.6018 78.3508 29.9472C81.9949 34.2926 89.7166 34.5867 95.5978 30.604Z" fill="#000000"/>
<path d="M83.0515 21.4859L85.168 20.1545L87.7713 23.4829C88.2158 24.0155 88.5544 24.586 88.8084 25.2137C88.9565 25.6892 88.9142 26.2027 88.7025 26.6592C88.4274 27.2297 87.9829 27.7052 87.3903 28.0476C86.6919 28.485 86.0993 28.7323 85.5913 28.8083C85.1045 28.8844 84.5965 28.8083 84.1309 28.6182C83.6229 28.3899 83.1785 28.0666 82.8398 27.6482L84.66 26.1266C84.8082 26.3358 84.9987 26.526 85.2103 26.6782C85.3585 26.7733 85.5278 26.8303 85.7183 26.8303C85.8664 26.8303 86.0146 26.7733 86.1204 26.6972C86.3321 26.5831 86.4802 26.3548 86.4591 26.1266C86.3956 25.8033 86.2474 25.4799 86.0146 25.2327L83.0515 21.4859ZM89.401 23.597L91.327 22.2276C91.5387 22.4559 91.8138 22.627 92.1101 22.7221C92.5334 22.8362 92.9779 22.7602 93.3377 22.5129C93.5917 22.3608 93.8033 22.1515 93.888 21.8853C94.015 21.5429 93.8033 21.1625 93.4223 21.0484C93.3588 21.0294 93.2953 21.0104 93.2319 21.0104C92.9779 20.9914 92.5334 21.0865 91.8773 21.3337C90.7979 21.7331 89.9513 21.8853 89.3163 21.8282C88.7025 21.7712 88.1311 21.4859 87.7924 21.0104C87.5385 20.6871 87.4115 20.3067 87.3903 19.9263C87.3903 19.4888 87.5173 19.0514 87.7924 18.69C88.1946 18.1765 88.6814 17.739 89.274 17.3967C90.1629 16.8451 90.946 16.5789 91.6233 16.5789C92.3006 16.5789 92.9355 16.8641 93.5282 17.4538L91.6233 18.8041C91.2423 18.3667 90.5227 18.2716 90.0359 18.6139L89.9724 18.671C89.7608 18.7851 89.6126 18.9563 89.528 19.1655C89.4645 19.3177 89.5068 19.4888 89.6126 19.622C89.6973 19.7171 89.8243 19.7931 89.9724 19.7931C90.1418 19.8122 90.4381 19.7361 90.8614 19.5649C91.9196 19.1655 92.7239 18.9373 93.2742 18.8612C93.7398 18.7851 94.2266 18.8231 94.6711 18.9943C95.0732 19.1465 95.4118 19.4128 95.6447 19.7361C95.941 20.1165 96.1103 20.5729 96.1315 21.0484C96.1526 21.5429 96.0045 22.0184 95.7082 22.4368C95.3272 22.9504 94.8404 23.3878 94.2689 23.7302C93.1049 24.4529 92.1524 24.7572 91.3905 24.6431C90.5651 24.529 89.8878 24.1486 89.401 23.597Z" fill="#F1F1F1"/>
</svg>
